<?xml version="1.0" encoding="UTF-8"?>
<!DOCTYPE svg PUBLIC "-//W3C//DTD SVG 1.1//EN" "http://www.w3.org/Graphics/SVG/1.1/DTD/svg11.dtd">
<svg xmlns="http://www.w3.org/2000/svg" viewBox="0 0 256 256" style="enable-background:new 0 0 256 256" xml:space="preserve"><style>.st2{fill:none;stroke:#6b1d1d;stroke-width:.5;stroke-miterlimit:10}.st3{fill:#3a312a}.st5{fill:#d5de58}.st8{fill:#f16c7a}.st11{fill:#d6df58}.st20{fill:#f8e4c8}</style><g id="Layer_1"><path class="st20" d="M239.243 90.383a145.339 145.339 0 0 0-111.241 0v149.065a145.348 145.348 0 0 1 111.241 0V90.383z"/><path class="st3" d="M128.001 240.949a1.498 1.498 0 0 1-1.5-1.5V90.383c0-.607.365-1.154.926-1.386 36.24-15.011 76.154-15.009 112.39 0 .561.232.926.779.926 1.386v149.065a1.498 1.498 0 0 1-2.074 1.386c-35.495-14.703-74.595-14.704-110.093 0-.185.077-.38.115-.575.115zm1.501-149.56v145.832c34.989-13.888 73.252-13.887 108.241 0V91.389c-34.94-14.197-73.297-14.198-108.241 0z"/><path class="st20" d="M16.757 149.096v90.352a145.348 145.348 0 0 1 111.241 0V90.383a145.339 145.339 0 0 0-111.241 0v58.713z"/><path class="st3" d="M127.998 240.949a1.51 1.51 0 0 1-.574-.114c-35.497-14.703-74.596-14.704-110.093 0a1.498 1.498 0 0 1-2.075-1.386v-90.352a1.5 1.5 0 1 1 3 0v88.125c34.991-13.889 73.252-13.889 108.242 0V91.389c-34.942-14.198-73.297-14.198-108.242 0v44.515a1.5 1.5 0 1 1-3 0v-45.52c0-.607.365-1.154.926-1.386 36.239-15.011 76.152-15.011 112.39 0a1.5 1.5 0 0 1 .925 1.386v149.065a1.5 1.5 0 0 1-1.499 1.5z"/><path class="st3" d="M115.178 212.874c-.146 0-.295-.021-.442-.067-27.718-8.549-57.012-8.548-84.716 0a1.5 1.5 0 1 1-.885-2.867c28.282-8.727 58.188-8.727 86.484 0a1.5 1.5 0 0 1-.441 2.934zM141.409 212.68a1.5 1.5 0 0 1-.436-2.935c27.817-8.452 57.24-8.471 85.089-.056a1.5 1.5 0 0 1-.867 2.872c-27.279-8.243-56.101-8.224-83.349.054a1.503 1.503 0 0 1-.437.065zM29.577 192.164a1.501 1.501 0 0 1-.442-2.934c28.282-8.728 58.188-8.727 86.484 0a1.5 1.5 0 1 1-.883 2.867c-27.718-8.549-57.012-8.548-84.716 0a1.512 1.512 0 0 1-.443.067zM141.409 191.971a1.501 1.501 0 0 1-.436-2.935c27.818-8.453 57.241-8.471 85.089-.056a1.5 1.5 0 0 1-.867 2.872c-27.279-8.243-56.101-8.225-83.349.054a1.503 1.503 0 0 1-.437.065zM115.178 171.454c-.146 0-.295-.021-.442-.067-27.718-8.549-57.012-8.548-84.716-.001a1.5 1.5 0 0 1-.885-2.867c28.282-8.727 58.188-8.727 86.484 0a1.5 1.5 0 0 1-.441 2.935zM141.409 171.261a1.5 1.5 0 0 1-.436-2.935c27.818-8.452 57.241-8.47 85.089-.056a1.5 1.5 0 0 1-.867 2.872c-27.279-8.243-56.101-8.224-83.349.054a1.503 1.503 0 0 1-.437.065zM115.178 150.745c-.146 0-.295-.021-.442-.067-27.718-8.549-57.012-8.548-84.716-.001a1.5 1.5 0 1 1-.885-2.866c28.282-8.728 58.188-8.727 86.484-.001a1.5 1.5 0 0 1-.441 2.935zM141.409 150.551a1.501 1.501 0 0 1-.436-2.935c27.818-8.453 57.241-8.471 85.089-.056a1.5 1.5 0 0 1-.867 2.872c-27.279-8.243-56.101-8.225-83.349.054a1.503 1.503 0 0 1-.437.065zM29.577 130.035a1.501 1.501 0 0 1-.442-2.933c28.282-8.728 58.188-8.727 86.484 0a1.5 1.5 0 0 1-.883 2.868c-27.718-8.549-57.012-8.548-84.716-.001a1.544 1.544 0 0 1-.443.066zM141.409 129.841a1.5 1.5 0 0 1-.436-2.935c27.818-8.452 57.241-8.47 85.089-.056a1.5 1.5 0 0 1-.867 2.872c-27.279-8.243-56.101-8.224-83.349.054a1.503 1.503 0 0 1-.437.065zM115.178 109.325c-.146 0-.295-.021-.442-.067-27.718-8.549-57.012-8.548-84.716-.001a1.5 1.5 0 0 1-.885-2.866c28.282-8.728 58.188-8.727 86.484-.001a1.5 1.5 0 0 1-.441 2.935zM141.409 109.132a1.501 1.501 0 0 1-.436-2.935c27.817-8.452 57.24-8.471 85.089-.056a1.5 1.5 0 0 1-.867 2.872c-27.279-8.242-56.101-8.224-83.349.054a1.503 1.503 0 0 1-.437.065z"/><circle cx="128" cy="151.716" r="61" style="fill:#8ac5dc"/><path class="st3" d="M128 214.216c-34.462 0-62.5-28.038-62.5-62.5s28.038-62.5 62.5-62.5c34.463 0 62.5 28.038 62.5 62.5s-28.037 62.5-62.5 62.5zm0-122c-32.809 0-59.5 26.691-59.5 59.5s26.691 59.5 59.5 59.5 59.5-26.691 59.5-59.5-26.691-59.5-59.5-59.5z"/><path class="st3" d="M128 214.216c-23.317 0-42.287-28.038-42.287-62.5s18.97-62.5 42.287-62.5c23.316 0 42.286 28.038 42.286 62.5s-18.97 62.5-42.286 62.5zm0-122c-21.663 0-39.287 26.691-39.287 59.5s17.624 59.5 39.287 59.5c21.662 0 39.286-26.691 39.286-59.5s-17.624-59.5-39.286-59.5z"/><path class="st3" d="M128 214.216c-11.248 0-17.317-32.202-17.317-62.5s6.069-62.5 17.317-62.5c11.247 0 17.316 32.202 17.316 62.5s-6.069 62.5-17.316 62.5zm0-122c-6.772 0-14.317 24.436-14.317 59.5 0 35.065 7.545 59.5 14.317 59.5 6.771 0 14.316-24.435 14.316-59.5 0-35.064-7.545-59.5-14.316-59.5z"/><path class="st3" d="M128 194.003c-34.462 0-62.5-18.97-62.5-42.287S93.538 109.43 128 109.43c34.463 0 62.5 18.97 62.5 42.287s-28.037 42.286-62.5 42.286zm0-81.573c-32.809 0-59.5 17.624-59.5 39.287s26.691 39.287 59.5 39.287 59.5-17.624 59.5-39.287-26.691-39.287-59.5-39.287z"/><path class="st3" d="M128 169.033c-30.298 0-62.5-6.069-62.5-17.317 0-11.247 32.202-17.317 62.5-17.317 30.299 0 62.5 6.069 62.5 17.317 0 11.248-32.201 17.317-62.5 17.317zm0-31.634c-35.065 0-59.5 7.545-59.5 14.317s24.435 14.317 59.5 14.317 59.5-7.545 59.5-14.317-24.436-14.317-59.5-14.317z"/><path class="st11" d="M47.911 26.228s3.408 12.659 13.222 13.246c0 0-13.1 4.525-13.321 14.202 0 0-2.579-13.572-12.925-14.059 0 .001 12.05-1.825 13.024-13.389z"/><path class="st3" d="M47.811 55.176a1.5 1.5 0 0 1-1.472-1.217c-.024-.124-2.495-12.418-11.523-12.843a1.5 1.5 0 0 1-.154-2.982c.441-.069 10.894-1.817 11.754-12.032a1.5 1.5 0 0 1 2.942-.265c.032.116 3.259 11.626 11.863 12.14a1.5 1.5 0 0 1 .402 2.915c-.121.042-12.118 4.31-12.313 12.819a1.498 1.498 0 0 1-1.499 1.465zM40.07 39.447c3.878 1.969 6.23 5.746 7.587 8.876 2.026-4.022 5.941-6.787 8.949-8.427-4.134-1.842-6.783-5.651-8.334-8.722-1.794 4.36-5.272 6.868-8.202 8.273z"/><path class="st11" d="M26.212 43.209s2.411 8.954 9.352 9.369c0 0-9.266 3.201-9.422 10.045 0 0-1.824-9.6-9.142-9.944 0 0 8.524-1.291 9.212-9.47z"/><path class="st3" d="M26.141 64.124a1.5 1.5 0 0 1-1.472-1.22c-.016-.082-1.704-8.441-7.739-8.726a1.5 1.5 0 0 1-.154-2.982c.296-.047 7.364-1.243 7.942-8.113a1.5 1.5 0 0 1 2.942-.266c.021.079 2.228 7.919 7.994 8.264a1.499 1.499 0 0 1 .4 2.915c-.081.028-8.282 2.953-8.413 8.662a1.501 1.501 0 0 1-1.5 1.466zm-4.519-11.528c2.107 1.333 3.523 3.394 4.447 5.28 1.376-2.232 3.515-3.872 5.365-4.973-2.287-1.269-3.884-3.35-4.941-5.224-1.174 2.287-3.015 3.876-4.871 4.917z"/><path class="st11" d="M26.212 16.551s2.411 8.954 9.352 9.37c0 0-9.266 3.201-9.422 10.045 0 0-1.824-9.6-9.142-9.944 0 0 8.524-1.291 9.212-9.471z"/><path class="st3" d="M26.141 37.466a1.5 1.5 0 0 1-1.472-1.22c-.016-.082-1.704-8.442-7.739-8.726a1.5 1.5 0 0 1-.155-2.981c.296-.047 7.364-1.243 7.942-8.114a1.5 1.5 0 0 1 2.942-.266c.021.079 2.228 7.92 7.994 8.265a1.5 1.5 0 0 1 .4 2.916c-.081.028-8.282 2.952-8.413 8.662a1.501 1.501 0 0 1-1.499 1.464zm-4.519-11.528c2.107 1.333 3.523 3.395 4.447 5.28 1.376-2.233 3.515-3.872 5.365-4.972-2.287-1.269-3.884-3.35-4.941-5.224-1.174 2.287-3.015 3.875-4.871 4.916z"/><path class="st8" d="M170.44 61.621v32.03c0 4.5-3.645 8.145-8.145 8.145H90.687a8.143 8.143 0 0 1-8.145-8.145v-32.03l43.949 22.353 43.949-22.353z"/><path class="st3" d="M162.296 103.296H90.687c-5.318 0-9.645-4.327-9.645-9.645v-32.03a1.501 1.501 0 0 1 2.18-1.337l43.268 22.007 43.27-22.007a1.498 1.498 0 0 1 2.18 1.337v32.03c0 5.318-4.326 9.645-9.644 9.645zM84.042 64.067v29.585a6.653 6.653 0 0 0 6.645 6.645h71.609a6.653 6.653 0 0 0 6.645-6.645V64.067l-41.769 21.245a1.496 1.496 0 0 1-1.36 0l-41.77-21.245z"/><path class="st8" d="M93.994 33.236 60.366 50.34l66.125 33.633 66.125-33.633-66.125-33.632-20.907 10.634z"/><path class="st3" d="M126.491 85.473c-.233 0-.466-.054-.68-.163L59.686 51.677a1.5 1.5 0 0 1 0-2.674l33.628-17.104a1.5 1.5 0 1 1 1.36 2.674l-31 15.767 62.816 31.95 62.816-31.95-62.816-31.949-20.227 10.288a1.5 1.5 0 1 1-1.36-2.674l20.908-10.634a1.496 1.496 0 0 1 1.36 0l66.125 33.632a1.499 1.499 0 0 1 0 2.674L127.171 85.31a1.494 1.494 0 0 1-.68.163z"/><path class="st5" d="M192.616 50.341v40.965c-1.694-2.177-3.984-3.516-6.516-3.516-2.516 0-4.806 1.339-6.5 3.516V56.953l13.016-6.612z"/><path class="st3" d="M192.616 92.806a1.5 1.5 0 0 1-1.184-.579c-1.474-1.894-3.366-2.937-5.332-2.937-1.955 0-3.843 1.043-5.316 2.937a1.501 1.501 0 0 1-2.684-.921V56.953c0-.565.317-1.082.82-1.337l13.016-6.612a1.5 1.5 0 0 1 2.18 1.337v40.965a1.5 1.5 0 0 1-1.5 1.5zm-6.515-6.516c1.775 0 3.486.541 5.016 1.562V52.785l-10.016 5.088V87.85c1.526-1.019 3.231-1.56 5-1.56z"/><ellipse class="st5" cx="186.105" cy="100.806" rx="9.528" ry="13.014"/><path class="st3" d="M186.105 115.321c-6.081 0-11.028-6.511-11.028-14.515 0-8.004 4.947-14.515 11.028-14.515s11.028 6.511 11.028 14.515c.001 8.004-4.947 14.515-11.028 14.515zm0-26.03c-4.427 0-8.028 5.166-8.028 11.515s3.602 11.515 8.028 11.515c4.427 0 8.028-5.166 8.028-11.515.001-6.349-3.601-11.515-8.028-11.515z"/><path d="M237.74 91.388v145.83c-4.45-1.77-8.96-3.31-13.5-4.62v-20.32l.307-.12a1.494 1.494 0 0 0 2.513-.6c.24-.79-.2-1.63-1-1.87-.6-.18-1.21-.36-1.82-.53v-17.59l.307-.12a1.494 1.494 0 0 0 2.513-.6c.24-.79-.2-1.63-1-1.87-.6-.18-1.21-.36-1.82-.53v-17.59l.307-.12a1.494 1.494 0 0 0 2.513-.6c.332-1.094-.639-2.284-2.065-1.844l-.755-.56v-17.588l.307-.118a1.494 1.494 0 0 0 2.513-.6c.332-1.094-.639-2.284-2.065-1.844l-.755-.561v-17.588l.307-.118a1.494 1.494 0 0 0 2.513-.6c.24-.79-.2-1.63-1-1.87-.6-.18-1.21-.36-1.82-.53v-17.59l.304-.12c.879.869 2.218.437 2.516-.6.24-.79-.2-1.63-1-1.87-.61-.18-1.21-.36-1.82-.53v-4.634c0-6.579-4.225-12.425-10.478-14.468a144.776 144.776 0 0 0-19.642-4.928v-.45c14.8 1.102 29.49 4.521 43.62 10.261z" style="fill:#decaad"/></g></svg>